<?xml version="1.0" encoding="UTF-8"?>
<svg width="240px" height="240px" viewBox="0 0 240 240" version="1.1" xmlns="http://www.w3.org/2000/svg" xmlns:xlink="http://www.w3.org/1999/xlink">
    <title>ivre</title>
    <g id="Page-1" stroke="none" stroke-width="1" fill="none" fill-rule="evenodd">
        <g id="ivre">
            <rect id="box" fill="#333333" x="0" y="0" width="240" height="240" rx="40"></rect>
            <circle id="circle" fill="#FFFFFF" cx="120" cy="120" r="92"></circle>
            <path d="M104,200 C99.581722,200 96,196.418278 96,192 L96,112 C96,96 104,82 112,80 L112,44 C112,41.790861 113.790861,40 116,40 L124,40 C126.209139,40 128,41.790861 128,44 L128,80 C136,82 144,96 144,112 L144,192 C144,196.418278 140.418278,200 136,200 L104,200 Z" id="Path" fill="#333333" fill-rule="nonzero"></path>
        </g>
    </g>
</svg>