<?xml version="1.0" encoding="UTF-8"?>
<svg width="240px" height="240px" viewBox="0 0 240 240" version="1.1" xmlns="http://www.w3.org/2000/svg" xmlns:xlink="http://www.w3.org/1999/xlink">
    <title>metamcp</title>
    <defs>
        <linearGradient x1="-9.93265355e-15%" y1="45.7801281%" x2="100%" y2="50%" id="linearGradient-1">
            <stop stop-color="#D1329A" offset="0%"></stop>
            <stop stop-color="#F93A80" offset="18.1179559%"></stop>
            <stop stop-color="#7E80FB" offset="44.5576615%"></stop>
            <stop stop-color="#57F0FF" offset="100%"></stop>
        </linearGradient>
    </defs>
    <g id="Page-1" stroke="none" stroke-width="1" fill="none" fill-rule="evenodd">
        <g id="metamcp">
            <rect id="box" stroke="#FFFFFF" stroke-width="12" fill="#283042" x="6" y="6" width="228" height="228" rx="48"></rect>
            <path d="M94.877098,129.693166 C95.751798,129.868166 108.885098,143.388166 110.830098,145.323166 C102.859098,152.764166 95.045698,161.383166 87.049698,168.994166 C92.306898,182.623166 84.918998,197.804166 71.172798,202.499166 C68.288798,203.485166 65.766198,203.705166 62.744498,203.909166 C61.315398,202.624166 59.896098,201.097166 58.551098,199.706166 C61.982998,196.401166 71.514198,188.244166 72.869798,184.349166 C74.362098,176.712166 66.199498,167.910166 58.646198,167.712166 C54.022598,167.591166 50.522198,172.741166 47.360498,175.659166 C45.258898,177.598166 43.008798,180.049166 40.992898,182.105166 C39.718798,180.939166 38.395798,179.546166 37.170898,178.307166 C37.217798,174.483166 37.849798,171.167166 39.384498,167.642166 C42.156798,161.384166 47.260298,156.453166 53.610498,153.897166 C58.648198,151.925166 66.136898,151.421166 71.144998,153.609166 C78.868798,145.613166 87.019098,137.605166 94.877098,129.693166 Z" id="Path" fill="#FFFFFF" fill-rule="nonzero"></path>
            <path d="M177.077098,36.3697659 C177.557098,36.2800659 179.423098,36.2055659 180.011098,36.1679659 C181.378098,37.4351659 182.851098,38.9930659 184.176098,40.3328659 C184.037098,40.4605659 183.899098,40.5891659 183.762098,40.7188659 C180.573098,43.7490659 172.824098,50.8315659 170.670098,54.1152659 C166.240098,60.8684659 176.626098,72.7374659 184.071098,72.3546659 C188.608098,72.1214659 190.498098,69.1288659 193.612098,66.1742659 C196.414098,63.4149659 199.086098,60.6990659 201.797098,57.9822659 L205.514098,61.7293659 C205.232098,76.7707659 193.802098,88.5692659 178.294098,87.8462659 C176.220098,87.7495659 173.463098,87.4118659 171.624098,86.4323659 L168.086098,90.0124659 C161.349098,96.7617659 154.144098,103.758166 147.618098,110.662166 C146.090098,108.803166 143.550098,106.425166 141.773098,104.641166 L131.899098,94.6712659 C139.330098,87.8085659 148.440098,78.3168659 155.601098,70.9885659 C154.956098,69.4086659 154.488098,67.2215659 154.260098,65.5300659 C153.306098,58.6704659 155.165098,51.7163659 159.415098,46.2478659 C163.929098,40.4025659 169.842098,37.3198659 177.077098,36.3697659 Z" id="Path" fill="#FFFFFF" fill-rule="nonzero"></path>
            <path d="M107.422016,123.588759 L120.698648,136.745365 L137.316027,153.88349 C149.730898,166.801166 175.54493,174.138343 198.661119,156.788376 C208.991854,149.034593 214.68823,134.954466 215.421694,123.588759 C216.329438,109.52241 210.027855,95.8075475 200.371049,87.0931206 C192.365445,95.8929706 192.365445,95.8929706 185.044319,104.009921 C190.771218,109.607475 192.365445,114.784488 192.365445,123.588759 C192.365445,128.717489 188.802596,137.199858 181.03998,140.760615 C173.277364,144.321372 174.153452,144.321372 166.593404,143.827121 C161.553372,143.497621 156.099918,140.287552 150.233042,134.196914 L103.492755,86.6462147 C90.6866185,72.343184 68.2642596,69.5487022 51.5291859,77.2868674 C34.7941121,85.0250325 23.9318855,100.79 24.9993227,122 C25.656496,135.058048 33.2485103,146.643667 40.0012594,153.031849 C46.2714063,146.177443 46.2714063,146.177443 55.3199324,135.81173 C50.8521979,130.383186 48.4031058,126.212775 47.9047029,121.62 C46.9148427,112.498453 51.4505095,102.700313 60.1472221,98.2397811 C68.8439347,93.7792494 80.5308796,95.4281021 88.2145613,104.009921 L107.422016,123.588759 Z" id="Path" fill="url(#linearGradient-1)" fill-rule="nonzero"></path>
        </g>
    </g>
</svg>