<?xml version="1.0" encoding="UTF-8"?>
<svg width="240px" height="240px" viewBox="0 0 240 240" version="1.1" xmlns="http://www.w3.org/2000/svg" xmlns:xlink="http://www.w3.org/1999/xlink">
    <title>taranis</title>
    <g id="Page-1" stroke="none" stroke-width="1" fill="none" fill-rule="evenodd">
        <g id="taranis">
            <rect id="box" x="0" y="0" width="240" height="240"></rect>
            <g id="shape" transform="translate(0, 10)" fill="#7468E8" fill-rule="nonzero">
                <path d="M239.066827,200.324567 L239.066827,200.324567 C234.855075,163.12079 214.255416,132.550013 182.492619,115.300217 C181.309935,122.518039 179.548384,129.700872 177.227929,136.773739 C196.674845,148.430222 212.35913,170.24864 216.760511,194.751248 C193.361334,203.203698 166.73348,200.509511 146.867385,189.457845 C146.867385,189.457845 146.857404,189.467842 146.852414,189.472841 C125.164885,177.791365 108.482555,158.352229 98.7017092,135.983977 C91.765293,137.478526 84.9686032,139.732846 78.5411902,142.761932 C79.7987275,145.761027 81.17104,148.73513 82.6531376,151.664247 L82.6531376,151.664247 C111.017591,208.002251 173.470287,237.588325 232.739219,211.311253 C232.739219,211.311253 232.739219,211.311253 232.739219,211.311253 L240,208.182197 L239.076808,200.319568 L239.066827,200.324567 Z" id="Path"></path>
                <path d="M89.6244854,90.1528031 C89.9837818,67.4596491 100.992224,42.9370469 119.985029,26.8818904 C162.052647,64.5305327 156.254003,119.958811 128.203934,158.667134 C132.964611,163.935545 138.304154,168.704106 144.13274,172.762882 C148.134902,167.494471 151.837651,161.836178 155.056348,155.957951 L155.056348,155.957951 C157.406745,151.669245 159.542562,147.265574 161.433859,142.756934 C161.433859,142.756934 161.433859,142.756934 161.428868,142.756934 C167.726536,127.706474 171.159812,111.87625 171.529089,96.3059469 C171.529089,96.3059469 171.534079,96.3059469 171.539069,96.3059469 C172.332515,68.0994561 162.312139,40.4477979 143.004949,19.7340467 C139.247307,15.6402817 135.170292,11.8364292 130.883686,8.30249534 C127.984364,5.89322216 123.024078,2.28431088 119.99002,0 L113.652431,4.733572 L113.652431,4.733572 C83.5913004,26.9868587 67.4628852,60.1418567 68.4259991,96.3159438 C75.2576205,93.7317234 82.3487337,91.6673462 89.6194952,90.1478046 L89.6244854,90.1528031 Z" id="Path"></path>
                <path d="M93.1126544,189.457845 C73.3114318,200.489517 46.6037344,203.203698 23.2295089,194.751248 C33.1650518,142.512008 83.167131,116.14996 133.064416,121.728278 C135.240155,114.960319 136.692311,107.942436 137.286148,100.849576 C125.903439,99.3900165 114.131492,99.4000135 102.698881,100.849576 C102.698881,100.849576 102.698881,100.849576 102.698881,100.849576 C86.545515,102.908955 71.1456731,107.83247 57.4874205,115.305215 L57.4874205,115.305215 C52.4223396,118.079378 47.561858,121.22343 42.9658585,124.722374 C42.9658585,124.722374 42.9658585,124.722374 42.9658585,124.722374 C42.9658585,124.722374 42.9658585,124.722374 42.9658585,124.722374 C26.8723749,136.918695 14.4217574,153.70863 7.47037052,172.687904 C3.23865763,183.659594 1.16771323,196.290784 0,208.177198 L7.26078097,211.306254 C7.26078097,211.306254 7.26078097,211.306254 7.26078097,211.306254 C41.528673,226.251745 78.2567472,223.667525 109.046451,204.748232 C103.397513,200.11463 98.0679503,194.996174 93.1176446,189.44285 L93.1126544,189.457845 Z" id="Path"></path>
            </g>
        </g>
    </g>
</svg>