<svg width="570" height="570" viewBox="0 0 570 570" fill="none" xmlns="http://www.w3.org/2000/svg">
<path d="M570 0H0V570H570V0Z" fill="#161310"/>
<path d="M343.194 434.795L352.32 382.162L355.72 362.551L362.146 382.162L379.394 434.795H343.194ZM536.948 358.395L540.027 340.954H477.666L488.961 277H440.458L429.164 340.954L421.981 381.651L418.231 402.898L411.141 381.651L397.56 340.954L376.219 277H321.641L310.347 340.954H255.939L248.756 381.651H303.164L293.926 433.977H239.518L236.438 451.419H257.225L256.201 457.233H235.414L232.335 474.674H286.735L277.496 527H327.031L336.269 474.674H393.68L401.448 497.95L411.141 527H444.823L449.95 497.95L454.062 474.674H516.422L523.605 433.977H461.245L470.483 381.651H532.844L535.924 364.209H515.137L516.161 358.395H536.948Z" fill="#F6D30F"/>
<path fill-rule="evenodd" clip-rule="evenodd" d="M137.992 445.489L182.509 471.176L130.921 493.217L126 526.435V526.77L215.932 487.973L221.716 456.49L143.345 409.353L137.992 445.489Z" fill="#F6D30F"/>
</svg>
